<svg xmlns="http://www.w3.org/2000/svg" xmlns:xlink="http://www.w3.org/1999/xlink" xml:space="preserve" version="1.1" style="shape-rendering:geometricPrecision;text-rendering:geometricPrecision;image-rendering:optimizeQuality;" viewBox="0 0 846.66 1058.325" x="0px" y="0px" fill-rule="evenodd" clip-rule="evenodd"><defs><style type="text/css">
   
    .fil0 {fill:#467f9f;fill-rule:nonzero}
   
  </style></defs><g><path class="fil0" d="M212.84 397.37c-19.25,0 -36.69,7.81 -49.3,20.42 -12.61,12.61 -20.42,30.05 -20.42,49.3 0,19.25 7.81,36.69 20.42,49.3 12.61,12.61 30.05,20.42 49.3,20.42 19.25,0 36.69,-7.81 49.3,-20.42 12.61,-12.61 20.42,-30.05 20.42,-49.3 0,-19.25 -7.81,-36.69 -20.42,-49.3 -12.61,-12.61 -30.05,-20.42 -49.3,-20.42zm469.75 203.35c9.35,0 16.93,7.58 16.93,16.93 0,9.35 -7.58,16.93 -16.93,16.93l-160.35 0c-9.35,0 -16.93,-7.58 -16.93,-16.93 0,-9.35 7.58,-16.93 16.93,-16.93l160.35 0zm0 -58.31c9.35,0 16.93,7.58 16.93,16.93 0,9.35 -7.58,16.93 -16.93,16.93l-290.5 0c-9.35,0 -16.93,-7.58 -16.93,-16.93 0,-9.35 7.58,-16.93 16.93,-16.93l290.5 0zm-492.94 -176.29l0 -288.79c0,-14 5.83,-26.73 15.19,-35.96 9.3,-9.14 22.11,-14.83 36.14,-14.83l527.86 0c14.03,0 26.84,5.69 36.14,14.83 9.36,9.23 15.19,21.96 15.19,35.96l0 643.89c0,13.99 -5.82,26.72 -15.2,35.95 -9.3,9.15 -22.1,14.84 -36.13,14.84l-349.81 0 -10.24 25.94c-2.6,6.67 -8.98,10.75 -15.74,10.75l-177.09 0.03c-9.35,0 -16.93,-7.58 -16.93,-16.93 0,-2.58 0.58,-5.02 1.6,-7.2l57.73 -146.31c2.6,-6.67 8.98,-10.75 15.74,-10.75l45.25 -0.01c-3.19,-3.11 -6.52,-6.07 -9.97,-8.9 -9.82,-8.05 -20.7,-14.9 -32.37,-20.32l-54.65 37.33c-6.01,4.1 -13.74,3.79 -19.34,-0.21l-54.35 -37.12c-25.22,11.7 -46.69,30.05 -62.11,52.74 -16.53,24.33 -26.21,53.82 -26.21,85.64l0 32.64c0,4.63 1.92,8.87 4.99,11.94 3.07,3.07 7.31,4.99 11.94,4.99l71.21 0c4.46,0 8.55,-1.85 11.51,-4.81 2.96,-2.96 4.81,-7.05 4.81,-11.51 0,-4.51 -1.82,-8.6 -4.74,-11.51 -2.98,-2.99 -7.07,-4.81 -11.58,-4.81l-34.5 0c-9.35,0 -16.93,-7.58 -16.93,-16.93l0 -47.47c0,-9.35 7.58,-16.93 16.93,-16.93 9.35,0 16.93,7.58 16.93,16.93l0 30.54 17.57 0c13.73,0 26.24,5.64 35.34,14.69l0.07 0.08c9.12,9.13 14.77,21.69 14.77,35.41 0,13.81 -5.65,26.37 -14.73,35.45 -9.08,9.08 -21.64,14.73 -35.45,14.73l-71.21 0c-13.96,0 -26.69,-5.72 -35.88,-14.91 -9.19,-9.19 -14.91,-21.9 -14.91,-35.88l0 -32.64c0,-38.68 11.88,-74.7 32.17,-104.56 20.9,-30.75 50.7,-54.94 85.62,-68.76 5.05,-1.95 10.94,-1.48 15.74,1.79l52.82 36.08 51.9 -35.45c4.58,-3.58 10.87,-4.7 16.66,-2.42 18,7.12 34.65,17 49.4,29.08 12.41,10.16 23.51,21.96 33,35.07l87.39 -0.01c9.35,0 16.93,7.58 16.93,16.93 0,2.58 -0.58,5.02 -1.6,7.2l-34.13 86.51 336.45 0c4.85,0 9.28,-1.94 12.45,-5.06 3.09,-3.04 5.02,-7.25 5.02,-11.87l0 -643.89c0,-4.63 -1.93,-8.85 -5.01,-11.88 -3.16,-3.11 -7.6,-5.05 -12.46,-5.05l-527.86 0c-4.87,0 -9.3,1.94 -12.46,5.05 -3.08,3.03 -5.01,7.25 -5.01,11.88l0 286.73c24.34,2.5 46.2,13.42 62.57,29.79 18.73,18.73 30.34,44.64 30.34,73.24 0,28.6 -11.61,54.51 -30.34,73.24 -18.73,18.73 -44.64,30.34 -73.24,30.34 -28.6,0 -54.51,-11.61 -73.24,-30.34 -18.73,-18.73 -30.34,-44.64 -30.34,-73.24 0,-28.6 11.61,-54.51 30.34,-73.24 13.51,-13.51 30.75,-23.31 50.05,-27.73zm380.04 56.08c-5.33,-7.63 -3.47,-18.15 4.16,-23.48 7.63,-5.33 18.15,-3.47 23.48,4.16l9.66 13.82 21.25 -45.36c3.94,-8.43 13.99,-12.08 22.42,-8.14 8.43,3.94 12.08,13.99 8.14,22.42l-33.63 71.8c-1.21,2.6 -3.1,4.92 -5.62,6.68 -7.63,5.33 -18.15,3.47 -23.48,-4.16l-26.38 -37.74zm43.83 -111.4c7.08,0 14,0.71 20.69,2.07 1.48,-4.81 2.74,-9.72 3.74,-14.72 1.95,-9.74 2.98,-19.86 2.98,-30.2 0,-42.1 -17.07,-80.24 -44.66,-107.83 -27.59,-27.59 -65.72,-44.66 -107.83,-44.66 -42.1,0 -80.24,17.07 -107.83,44.66 -27.59,27.59 -44.66,65.73 -44.66,107.83 0,33.32 10.69,64.15 28.82,89.24 14.41,-12.83 30.78,-23.44 48.58,-31.28 5.86,-2.58 11.88,-4.87 18.04,-6.85 -5.85,-3.87 -11.26,-8.29 -16.19,-13.22 -18.73,-18.73 -30.34,-44.64 -30.34,-73.24 0,-28.6 11.61,-54.51 30.34,-73.24 18.73,-18.73 44.64,-30.34 73.24,-30.34 28.6,0 54.51,11.61 73.24,30.34 18.73,18.73 30.34,44.64 30.34,73.24 0,28.6 -11.61,54.51 -30.34,73.24 -4.93,4.93 -10.36,9.37 -16.21,13.23 5.39,1.72 10.67,3.69 15.8,5.87 15.34,-8.98 33.19,-14.14 52.25,-14.14zm52.37 14.2c7.64,4.49 14.65,9.92 20.87,16.14 18.73,18.73 30.34,44.64 30.34,73.24 0,28.6 -11.61,54.51 -30.34,73.24 -18.73,18.73 -44.64,30.34 -73.24,30.34 -28.6,0 -54.51,-11.61 -73.24,-30.34 -10.02,-10.02 -18,-22.08 -23.25,-35.52 -2.1,0.32 -4.19,0.61 -6.27,0.86 -7.38,0.88 -14.85,1.34 -22.32,1.34 -51.45,0 -98.05,-20.86 -131.77,-54.58 -33.72,-33.72 -54.58,-80.31 -54.58,-131.77 0,-51.45 20.86,-98.05 54.58,-131.77 33.72,-33.72 80.32,-54.58 131.77,-54.58 51.46,0 98.05,20.86 131.77,54.58 33.72,33.72 54.58,80.32 54.58,131.77 0,12.59 -1.26,24.92 -3.64,36.82 -1.38,6.89 -3.14,13.64 -5.26,20.23zm-155.85 93.94c-0.07,-1.51 -0.1,-3.03 -0.1,-4.56 0,-24.18 8.3,-46.43 22.19,-64.06 -3.06,-0.92 -6.16,-1.74 -9.29,-2.46 -10.95,-2.52 -22.48,-3.86 -34.4,-3.86 -21.89,0 -42.7,4.61 -61.47,12.87 -14.54,6.41 -27.87,14.99 -39.56,25.3 26.91,23.81 62.29,38.27 101.03,38.27 6.27,0 12.42,-0.37 18.36,-1.08l3.24 -0.42zm152.78 -53.86c-12.61,-12.61 -30.05,-20.42 -49.3,-20.42 -19.25,0 -36.69,7.81 -49.3,20.42 -12.61,12.61 -20.42,30.05 -20.42,49.3 0,19.25 7.81,36.69 20.42,49.3 12.61,12.61 30.05,20.42 49.3,20.42 19.25,0 36.69,-7.81 49.3,-20.42 12.61,-12.61 20.42,-30.05 20.42,-49.3 0,-19.25 -7.81,-36.69 -20.42,-49.3zm-125.08 -181.78c-12.61,-12.61 -30.05,-20.42 -49.3,-20.42 -19.25,0 -36.69,7.81 -49.3,20.42 -12.61,12.61 -20.42,30.05 -20.42,49.3 0,19.25 7.81,36.69 20.42,49.3 12.61,12.61 30.05,20.42 49.3,20.42 19.25,0 36.69,-7.81 49.3,-20.42 12.61,-12.61 20.42,-30.05 20.42,-49.3 0,-19.25 -7.81,-36.69 -20.42,-49.3zm-252.15 478.07l-44.78 113.5 140.75 0 44.78 -113.5 -140.75 0z"/></g></svg>